<?xml version="1.0" encoding="iso-8859-1"?>
<!-- Generator: Adobe Illustrator 19.0.0, SVG Export Plug-In . SVG Version: 6.00 Build 0)  -->
<svg version="1.1" id="Capa_1" xmlns="http://www.w3.org/2000/svg" xmlns:xlink="http://www.w3.org/1999/xlink" x="0px" y="0px"
	 viewBox="0 0 512 512" style="enable-background:new 0 0 512 512;" xml:space="preserve">
<g>
	<g>
		<path d="M290.147,148.003L265.28,128.42c-5.443-4.287-13.117-4.287-18.561,0l-24.867,19.583
			c-6.509,5.125-7.63,14.557-2.504,21.065c5.125,6.509,14.555,7.629,21.064,2.504l0.587-0.462v40.017c0,8.284,6.716,15,15,15
			s15-6.716,15-15V171.11l0.587,0.462c2.75,2.166,6.021,3.216,9.271,3.216c4.439,0,8.835-1.962,11.794-5.72
			C297.777,162.56,296.656,153.129,290.147,148.003z"/>
	</g>
</g>
<g>
	<g>
		<path d="M292.651,342.931c-5.125-6.509-14.556-7.629-21.064-2.504L271,340.889v-40.017c0-8.284-6.716-15-15-15s-15,6.716-15,15
			v40.017l-0.587-0.462c-6.508-5.124-15.939-4.004-21.064,2.504c-5.126,6.508-4.005,15.939,2.504,21.065l24.867,19.583
			c2.722,2.144,6.001,3.215,9.28,3.215s6.559-1.072,9.28-3.215l24.867-19.583C296.656,358.871,297.777,349.439,292.651,342.931z"/>
	</g>
</g>
<g>
	<g>
		<path d="M497,241H351.333V95.333c0-8.284-6.716-15-15-15H175.667c-8.284,0-15,6.716-15,15V241H15c-8.284,0-15,6.716-15,15v160.667
			c0,8.284,6.716,15,15,15h482c8.284,0,15-6.716,15-15V256C512,247.716,505.284,241,497,241z M160.667,401.667H30V271h130.667
			V401.667z M321.333,401.667H190.667V271h130.666V401.667z M321.333,241H190.667V110.333h130.666V241z M482,401.667H351.333V271
			H482V401.667z"/>
	</g>
</g>
<g>
	<g>
		<path d="M463.914,327.052l-19.582-24.867c-5.127-6.509-14.557-7.631-21.065-2.504c-6.509,5.125-7.63,14.556-2.505,21.065
			l0.462,0.587h-40.018c-8.284,0-15,6.716-15,15s6.715,15,14.999,15h40.019l-0.462,0.586c-5.126,6.509-4.005,15.939,2.504,21.065
			c2.75,2.166,6.021,3.216,9.271,3.216c4.439,0,8.835-1.962,11.794-5.72l19.582-24.867
			C468.2,340.169,468.201,332.497,463.914,327.052z"/>
	</g>
</g>
<g>
	<g>
		<path d="M130.795,321.333H90.777l0.462-0.587c5.125-6.509,4.004-15.94-2.505-21.065c-6.507-5.124-15.938-4.004-21.065,2.504
			l-19.582,24.867c-4.287,5.444-4.286,13.116,0.001,18.561L67.67,370.48c2.96,3.759,7.354,5.721,11.794,5.72
			c3.248,0,6.521-1.05,9.271-3.216c6.509-5.125,7.63-14.556,2.504-21.065l-0.462-0.586h40.019c8.284,0,15-6.716,15-15
			S139.079,321.333,130.795,321.333z"/>
	</g>
</g>
<g>
</g>
<g>
</g>
<g>
</g>
<g>
</g>
<g>
</g>
<g>
</g>
<g>
</g>
<g>
</g>
<g>
</g>
<g>
</g>
<g>
</g>
<g>
</g>
<g>
</g>
<g>
</g>
<g>
</g>
</svg>
