<?xml version="1.0" encoding="utf-8"?>
<!-- Generator: Adobe Illustrator 16.0.0, SVG Export Plug-In . SVG Version: 6.00 Build 0)  -->
<!DOCTYPE svg PUBLIC "-//W3C//DTD SVG 1.1//EN" "http://www.w3.org/Graphics/SVG/1.1/DTD/svg11.dtd">
<svg version="1.1" id="Capa_1" xmlns="http://www.w3.org/2000/svg" xmlns:xlink="http://www.w3.org/1999/xlink" x="0px" y="0px"
	 width="482px" height="197.25px" viewBox="0 0 482 197.25" enable-background="new 0 0 482 197.25" xml:space="preserve">
<g>
	<g>
		<path d="M456.955,14.836H33.322c-7.28,0-13.184,5.902-13.184,13.184V169.23c0,7.279,5.903,13.184,13.185,13.184h423.633
			c7.281,0,13.185-5.902,13.185-13.184V28.02C470.138,20.738,464.236,14.836,456.955,14.836z M443.772,156.047H328.927v-0.009
			H302.56v0.009H187.718V156H161.35v0.047H46.506V41.203H161.35v0.047h26.367v-0.047H302.56v0.005h26.367v-0.005h114.845V156.047z"
			/>
		<line x1="302.56" y1="14.836" x2="187.718" y2="14.836"/>
	</g>
</g>
<g>
	<path d="M170.852,100.631h-13.091v15.471h14.791v9.691h-25.927V68.498h24.907v9.691h-13.771v13.176h13.091V100.631z"/>
	<path d="M178.84,114.401c2.295,1.275,6.206,2.21,9.436,2.21c5.271,0,7.821-2.72,7.821-6.46c0-4.165-2.55-6.206-7.396-9.351
		c-7.821-4.761-10.796-10.796-10.796-15.981c0-9.181,6.121-16.832,18.106-16.832c3.74,0,7.311,1.02,9.011,2.04l-1.785,9.606
		c-1.615-1.02-4.081-1.955-7.311-1.955c-4.76,0-7.056,2.89-7.056,5.951c0,3.4,1.7,5.185,7.906,8.925
		c7.565,4.59,10.371,10.371,10.371,16.406c0,10.456-7.735,17.342-18.957,17.342c-4.59,0-9.096-1.189-10.966-2.295L178.84,114.401z"
		/>
	<path d="M213.605,69.348c3.146-0.68,7.396-1.105,11.646-1.105c6.631,0,11.816,0.935,15.556,4.42
		c3.4,2.976,4.931,7.736,4.931,12.581c0,6.206-1.871,10.541-4.846,13.771c-3.57,3.741-9.351,5.44-13.941,5.44
		c-0.765,0-1.53,0-2.21,0v21.338h-11.136V69.348z M224.741,95.36c0.51,0.17,1.105,0.17,1.785,0.17c5.61,0,8.161-3.996,8.161-9.351
		c0-5.015-2.041-8.926-7.226-8.926c-1.02,0-2.041,0.17-2.72,0.425V95.36z"/>
	<path d="M257.974,112.701l-2.549,13.092h-10.797l12.411-57.295h13.347l11.135,57.295h-10.795l-2.465-13.092H257.974z
		 M267.241,104.031l-1.87-11.986c-0.596-3.485-1.36-9.181-1.87-13.006h-0.255c-0.596,3.826-1.445,9.776-2.041,13.091l-2.125,11.901
		H267.241z"/>
	<path d="M313.906,124.943c-1.615,0.764-4.76,1.359-8.67,1.359c-14.621,0-21.592-12.071-21.592-28.308
		c0-21.591,11.986-30.007,23.121-30.007c3.912,0,6.631,0.765,7.736,1.53l-1.869,9.351c-1.275-0.595-2.721-1.105-5.186-1.105
		c-6.291,0-11.986,5.44-11.986,19.637c0,13.686,5.186,19.041,11.986,19.041c1.869,0,3.994-0.425,5.355-0.85L313.906,124.943z"/>
	<path d="M344.25,100.631h-13.09v15.471h14.791v9.691h-25.928V68.498h24.906v9.691h-13.77v13.176h13.09V100.631z"/>
</g>
</svg>
